<svg width="1280" height="640" viewBox="0 0 1280 640" xmlns="http://www.w3.org/2000/svg" role="img" aria-labelledby="title desc">
  <title id="title">WWWorkRemote</title>
  <desc id="desc">Local-first job search command center for finding, applying, and preparing for work.</desc>
  <defs>
    <linearGradient id="background" x1="0" y1="0" x2="1" y2="1">
      <stop offset="0" stop-color="#11151b"/>
      <stop offset="0.62" stop-color="#202532"/>
      <stop offset="1" stop-color="#30234d"/>
    </linearGradient>
    <linearGradient id="accent" x1="0" y1="0" x2="1" y2="0">
      <stop offset="0" stop-color="#8b7cff"/>
      <stop offset="1" stop-color="#00d4c7"/>
    </linearGradient>
    <pattern id="grid" width="48" height="48" patternUnits="userSpaceOnUse">
      <path d="M48 0H0V48" fill="none" stroke="#ffffff" stroke-opacity="0.06"/>
    </pattern>
  </defs>
  <rect width="1280" height="640" fill="url(#background)"/>
  <rect width="1280" height="640" fill="url(#grid)"/>
  <circle cx="1100" cy="-30" r="300" fill="#8b7cff" fill-opacity="0.12"/>
  <circle cx="1180" cy="560" r="240" fill="#00d4c7" fill-opacity="0.10"/>
  <g transform="translate(92 150)">
    <rect width="184" height="184" rx="42" fill="#171b22" stroke="#ffffff" stroke-opacity="0.12" stroke-width="3"/>
    <path d="M31 50 51 134h18l23-56 23 56h18l20-84h-21l-10 49-21-49H84L63 99 53 50z" fill="url(#accent)"/>
    <circle cx="148" cy="32" r="7" fill="#ff2b9a"/>
  </g>
  <text x="330" y="235" fill="#ffffff" font-family="system-ui, sans-serif" font-size="72" font-weight="800" letter-spacing="-3">WWWork<tspan fill="#8b7cff">Remote</tspan></text>
  <text x="336" y="304" fill="#b4bdcc" font-family="system-ui, sans-serif" font-size="28" font-weight="600">Find the work. Build the pipeline. Make the next move.</text>
  <rect x="336" y="358" width="420" height="8" rx="4" fill="url(#accent)"/>
  <text x="336" y="420" fill="#7f8ba0" font-family="ui-monospace, monospace" font-size="19" letter-spacing="2">LOCAL-FIRST · HUMAN-SUPERVISED · AGPLV3</text>
</svg>
